{"asset":{"generator":"glTF-Transform v3.4.0","version":"2.0","extras":{"author":"spencerlindsay (https://sketchfab.com/spencerlindsay)","license":"CC-BY-4.0 (http://creativecommons.org/licenses/by/4.0/)","source":"https://sketchfab.com/3d-models/dubai-clouds-f20260af41594870a97381033652e5c7","title":"Dubai Clouds"}},"accessors":[{"type":"VEC3","componentType":5126,"count":4,"max":[151.775390625,0,151.775390625],"min":[-151.775390625,0,-151.775390625],"bufferView":0,"byteOffset":0},{"type":"VEC3","componentType":5126,"count":4,"bufferView":0,"byteOffset":12},{"type":"VEC2","componentType":5126,"count":4,"bufferView":0,"byteOffset":24},{"type":"VEC3","componentType":5126,"count":4,"max":[107.06509399414062,0,107.0650863647461],"min":[-107.0650863647461,0,-107.06509399414062],"bufferView":1,"byteOffset":0},{"type":"VEC3","componentType":5126,"count":4,"bufferView":1,"byteOffset":12},{"type":"VEC2","componentType":5126,"count":4,"bufferView":1,"byteOffset":24},{"type":"VEC3","componentType":5126,"count":4,"max":[151.775390625,0,151.775390625],"min":[-151.775390625,0,-151.775390625],"bufferView":2,"byteOffset":0},{"type":"VEC3","componentType":5126,"count":4,"bufferView":2,"byteOffset":12},{"type":"VEC2","componentType":5126,"count":4,"bufferView":2,"byteOffset":24},{"type":"VEC3","componentType":5126,"count":4,"max":[151.775390625,0,151.775390625],"min":[-151.775390625,0,-151.775390625],"bufferView":3,"byteOffset":0},{"type":"VEC3","componentType":5126,"count":4,"bufferView":3,"byteOffset":12},{"type":"VEC2","componentType":5126,"count":4,"bufferView":3,"byteOffset":24},{"type":"VEC3","componentType":5126,"count":4,"max":[100,0,100],"min":[-100,0,-100],"bufferView":4,"byteOffset":0},{"type":"VEC3","componentType":5126,"count":4,"bufferView":4,"byteOffset":12},{"type":"VEC2","componentType":5126,"count":4,"bufferView":4,"byteOffset":24},{"type":"VEC3","componentType":5126,"count":4,"max":[100,0,100],"min":[-100,0,-100],"bufferView":5,"byteOffset":0},{"type":"VEC3","componentType":5126,"count":4,"bufferView":5,"byteOffset":12},{"type":"VEC2","componentType":5126,"count":4,"bufferView":5,"byteOffset":24},{"type":"SCALAR","componentType":5125,"count":6,"bufferView":6,"byteOffset":0},{"type":"SCALAR","componentType":5125,"count":6,"bufferView":6,"byteOffset":24},{"type":"SCALAR","componentType":5125,"count":6,"bufferView":6,"byteOffset":48},{"type":"SCALAR","componentType":5125,"count":6,"bufferView":6,"byteOffset":72},{"type":"SCALAR","componentType":5125,"count":6,"bufferView":6,"byteOffset":96},{"type":"SCALAR","componentType":5125,"count":6,"bufferView":6,"byteOffset":120}],"bufferViews":[{"buffer":0,"byteOffset":0,"byteLength":128,"byteStride":32,"target":34962},{"buffer":0,"byteOffset":128,"byteLength":128,"byteStride":32,"target":34962},{"buffer":0,"byteOffset":256,"byteLength":128,"byteStride":32,"target":34962},{"buffer":0,"byteOffset":384,"byteLength":128,"byteStride":32,"target":34962},{"buffer":0,"byteOffset":512,"byteLength":128,"byteStride":32,"target":34962},{"buffer":0,"byteOffset":640,"byteLength":128,"byteStride":32,"target":34962},{"buffer":0,"byteOffset":768,"byteLength":144,"target":34963}],"samplers":[{"magFilter":9729,"minFilter":9987,"wrapS":10497,"wrapT":10497}],"textures":[{"source":0,"sampler":0},{"source":1,"sampler":0}],"images":[{"mimeType":"image/png","uri":"textures/Cloud_01_diffuse.png"},{"mimeType":"image/png","uri":"textures/cloud_00_diffuse.png"}],"buffers":[{"uri":"scene.bin","byteLength":912}],"materials":[{"name":"Cloud_01","alphaMode":"BLEND","doubleSided":true,"pbrMetallicRoughness":{"roughnessFactor":0.6,"metallicFactor":0,"baseColorTexture":{"index":0}},"extensions":{"KHR_materials_ior":{"ior":1000},"KHR_materials_specular":{"specularColorFactor":[0,0,0]}}},{"name":"cloud_00","alphaMode":"BLEND","doubleSided":true,"pbrMetallicRoughness":{"roughnessFactor":0.6,"metallicFactor":0,"baseColorTexture":{"index":1}},"extensions":{"KHR_materials_ior":{"ior":1000},"KHR_materials_specular":{"specularColorFactor":[0,0,0]}}}],"meshes":[{"name":"cloud_06_Cloud_01_0","primitives":[{"attributes":{"NORMAL":1,"POSITION":0,"TEXCOORD_0":2},"mode":4,"material":0,"indices":18}]},{"name":"cloud_05_Cloud_01_0","primitives":[{"attributes":{"NORMAL":4,"POSITION":3,"TEXCOORD_0":5},"mode":4,"material":0,"indices":19}]},{"name":"cloud_04_cloud_00_0","primitives":[{"attributes":{"NORMAL":7,"POSITION":6,"TEXCOORD_0":8},"mode":4,"material":1,"indices":20}]},{"name":"cloud_03_cloud_00_0","primitives":[{"attributes":{"NORMAL":10,"POSITION":9,"TEXCOORD_0":11},"mode":4,"material":1,"indices":21}]},{"name":"cloud_02_cloud_00_0","primitives":[{"attributes":{"NORMAL":13,"POSITION":12,"TEXCOORD_0":14},"mode":4,"material":1,"indices":22}]},{"name":"cloud_01_cloud_00_0","primitives":[{"attributes":{"NORMAL":16,"POSITION":15,"TEXCOORD_0":17},"mode":4,"material":1,"indices":23}]}],"nodes":[{"name":"Sketchfab_model","rotation":[-0.7071067811865475,0,0,0.7071067811865476],"children":[1]},{"name":"e6d916fe8d014a16b4a19f974f4ae58a.fbx","rotation":[0.7071067811865475,0,0,0.7071067811865476],"children":[2]},{"name":"RootNode","children":[3,5,7,9,11,13]},{"name":"cloud_06","translation":[-8.686001777648926,57.28418731689453,-40.08609390258789],"rotation":[0,0.675530358949295,0,0.7373321735404177],"children":[4]},{"name":"cloud_06_Cloud_01_0","mesh":0},{"name":"cloud_05","translation":[317.9859313964844,124.53468322753906,-77.50405883789062],"rotation":[7.889902727567594e-17,0.9356865616031675,-7.88990272756759e-17,0.3528323375701859],"children":[6]},{"name":"cloud_05_Cloud_01_0","mesh":1},{"name":"cloud_04","translation":[317.9859313964844,91.44734954833984,-77.50405883789062],"rotation":[8.656036813465449e-17,0.726989252649979,-8.656036813465453e-17,0.6866488378577691],"children":[8]},{"name":"cloud_04_cloud_00_0","mesh":2},{"name":"cloud_03","translation":[-52.425621032714844,91.44734954833984,-40.08609390258789],"children":[10]},{"name":"cloud_03_cloud_00_0","mesh":3},{"name":"cloud_02","translation":[-75.57681274414062,91.44734954833984,236.7836456298828],"rotation":[0,-0.6123556419638713,0,0.7905824231255177],"children":[12]},{"name":"cloud_02_cloud_00_0","mesh":4},{"name":"cloud_01","translation":[0,68.74542236328125,325.0354919433594],"children":[14]},{"name":"cloud_01_cloud_00_0","mesh":5}],"scenes":[{"name":"Sketchfab_Scene","nodes":[0]}],"scene":0,"extensionsUsed":["KHR_materials_ior","KHR_materials_specular"]}