<svg width="181" height="15" viewBox="0 0 181 15" fill="none" xmlns="http://www.w3.org/2000/svg">
<path id="Vector 3" d="M177.923 13.5L180 7.73007V13.5H177.923ZM171.5 13.5V9.28023L172.682 13.5H171.5ZM136 13.5H134.964L136 12.0752V13.5ZM132.594 10.7073L132.147 13.5H131.477L132.594 10.7073ZM129 13.5H128.413L129 11.838V13.5ZM126 13.5H125.228L126 9.76904V13.5ZM105.5 13.5H103.084L105.5 8.42595V13.5ZM100.5 13.5H99.1102L100.5 11.8014V13.5ZM96 13.5H94.9932L96 11.055V13.5ZM35.5 13.5V12.9207L36.3276 13.5H35.5ZM44.5 8.06423L47.3473 13.5H44.5V8.06423ZM52 13.5H50.9638L52 12.0752V13.5ZM40.5 12.0752L41.5362 13.5H40.5V12.0752ZM10.708 13.5H9.02358L11.4566 10.3184L10.708 13.5ZM6 10.4517V13.5H5.2684L6 10.4517ZM1 13.2038L1.33855 13.5H1V13.2038Z" stroke="#008854" stroke-width="2"/>
</svg>
